<svg width="20" height="16" viewBox="0 0 20 16" fill="none" xmlns="http://www.w3.org/2000/svg">
<path d="M18.2 0H1.8C0.8 0 0 0.8 0 1.9V13.2C0 14.2 0.8 15.1 1.8 15.1H18.2C19.2 15.1 20 14.3 20 13.2V1.9C20 0.8 19.2 0 18.2 0ZM1.8 0.9H18.2C18.3 0.9 18.4 0.9 18.5 1L10.6 9.1C10.4 9.3 10.2 9.4 10 9.4C9.8 9.4 9.6 9.3 9.4 9.1L1.5 1C1.6 1 1.7 0.9 1.8 0.9ZM0.9 13.1V1.9C0.9 1.8 0.9 1.8 0.9 1.7L6.5 7.5L0.9 13.3C0.9 13.2 0.9 13.2 0.9 13.1ZM18.2 14.1H1.8C1.7 14.1 1.6 14.1 1.5 14L7.2 8.2L8.8 9.8C9.2 10.2 9.6 10.3 10.1 10.3C10.6 10.3 11 10.1 11.4 9.8L13 8.2L18.7 14C18.4 14 18.3 14.1 18.2 14.1ZM19.1 13.1C19.1 13.2 19.1 13.2 19.1 13.3L13.5 7.5L19.1 1.7C19.1 1.8 19.1 1.8 19.1 1.9V13.1Z" fill="#333333"/>
</svg>
