<svg width="20" height="20" viewBox="0 0 20 20" fill="none" xmlns="http://www.w3.org/2000/svg">
<path d="M11.3 14.1C11 14.1 10.8 14.1 10.7 14C10.6 13.9 10.5 13.7 10.5 13.5C10.5 13.4 10.5 13.3 10.6 13.1C10.6 12.9 10.7 12.7 10.7 12.6L11.2 10.8C11.3 10.6 11.3 10.4 11.3 10.2C11.3 10 11.3 9.9 11.3 9.8C11.3 9.4 11.2 9.1 10.9 8.9C10.6 8.7 10.2 8.5 9.7 8.5C9.4 8.5 9.1 8.6 8.8 8.6C8.5 8.7 8.1 8.8 7.8 9L7.7 9.5C7.8 9.5 7.9 9.4 8.1 9.4C8.2 9.4 8.4 9.3 8.5 9.3C8.8 9.3 9 9.3 9.1 9.4C9.2 9.5 9.2 9.7 9.2 9.9C9.2 10 9.2 10.2 9.2 10.3C9.2 10.5 9.1 10.6 9.1 10.8L8.6 12.7C8.6 12.9 8.5 13.1 8.5 13.2C8.5 13.4 8.5 13.5 8.5 13.7C8.5 14.1 8.6 14.4 8.9 14.6C9.2 14.8 9.6 15 10.1 15C10.4 15 10.7 15 11 14.9C11.3 14.8 11.6 14.7 12 14.5L12.1 13.9C12 13.9 11.9 14 11.7 14C11.6 14.1 11.5 14.1 11.3 14.1ZM11 5C10.6 5 10.3 5.1 10.1 5.3C9.8 5.6 9.7 5.8 9.7 6.2C9.7 6.5 9.8 6.8 10.1 7C10.4 7.2 10.7 7.3 11 7.3C11.4 7.3 11.7 7.2 11.9 7C12.2 6.8 12.3 6.5 12.3 6.2C12.3 5.9 12.2 5.6 11.9 5.4C11.6 5.1 11.3 5 11 5ZM10 0C4.5 0 0 4.5 0 10C0 15.5 4.5 20 10 20C15.5 20 20 15.5 20 10C20 4.5 15.5 0 10 0ZM10 19.1C5 19.1 0.9 15 0.9 10C0.9 5 5 0.9 10 0.9C15 0.9 19.1 5 19.1 10C19.1 15 15 19.1 10 19.1Z" fill="#333333"/>
</svg>
