<svg width="30" height="27" viewBox="0 0 30 27" fill="none" xmlns="http://www.w3.org/2000/svg">
<path d="M13.5 17.3C14.2 20.8 17.3 23.4 21 23.4C21.7 23.4 22.3 23.3 23 23.1H23.1C23.2 23.1 23.3 23.1 23.4 23.2L26.2 25.3V21.6C26.2 21.5 26.3 21.3 26.4 21.2C27.9 19.8 28.7 17.8 28.7 15.7C28.7 11.5 25.3 8.1 21.1 8.1C20.1 8.1 19.1 8.3 18.3 8.7C18.3 9 18.4 9.3 18.4 9.7C18.2 13 16.3 15.9 13.5 17.3Z" stroke="#333333" stroke-width="0.5" stroke-miterlimit="10"/>
<path d="M20.9 7.1C19.8 7.1 18.8 7.3 17.9 7.7C17 3.9 13.6 1 9.50003 1C4.80003 1 0.900024 4.9 0.900024 9.6C0.900024 11.9 1.80002 14 3.40002 15.6V20.1C3.40002 20.3 3.50003 20.5 3.70003 20.5C3.80003 20.5 3.80002 20.6 3.90002 20.6C4.00002 20.6 4.10003 20.6 4.20003 20.5L7.60004 17.9C8.20004 18.1 8.90004 18.1 9.60004 18.1C10.7 18.1 11.7 17.9 12.6 17.5C13.5 21.3 16.9 24.2 21 24.2C21.7 24.2 22.3 24.1 23 24L26.4 26.6C26.5 26.7 26.6 26.7 26.7 26.7C26.8 26.7 26.9 26.7 26.9 26.6C27.1 26.5 27.2 26.3 27.2 26.2V21.7C28.8 20.1 29.7 17.9 29.7 15.7C29.5 11 25.7 7.1 20.9 7.1ZM12.4 16.7C11.5 17.1 10.6 17.3 9.60004 17.3C8.90004 17.3 8.30004 17.2 7.60004 17C7.50004 17 7.30003 17 7.20003 17.1L4.40002 19.2V15.5C4.40002 15.4 4.30003 15.2 4.20003 15.1C2.70003 13.7 1.90002 11.7 1.90002 9.6C1.90002 5.4 5.30003 2 9.50003 2C13.2 2 16.2 4.6 17 8.1C17.1 8.4 17.1 8.8 17.1 9.2C17.1 9.4 17.1 9.5 17.1 9.7C17.1 12.5 15.6 15 13.3 16.3C13 16.4 12.7 16.6 12.4 16.7ZM26.2 21.2C26.1 21.3 26 21.4 26 21.6V25.3L23.2 23.2C23.1 23.1 23 23.1 22.9 23.1H22.8C22.2 23.3 21.5 23.4 20.8 23.4C17.1 23.4 14.1 20.8 13.3 17.3C16.1 15.9 18 13 18 9.6C18 9.3 18 9 17.9 8.6C18.8 8.2 19.7 8 20.7 8C24.9 8 28.3 11.4 28.3 15.6C28.6 17.8 27.7 19.8 26.2 21.2Z" fill="#333333" stroke="#333333" stroke-width="0.5" stroke-miterlimit="10"/>
<path d="M10.4 5.4C10.2 5.1 10 4.9 9.7 4.9C9.6 4.9 9.5 4.9 9.4 5C9.2 5 9.10001 5.2 9.10001 5.3L6.2 12.8C6.1 13 6.1 13.2 6.2 13.4C6.3 13.6 6.40001 13.7 6.60001 13.8C6.70001 13.9 6.8 13.9 6.9 13.9C7.2 13.9 7.40001 13.7 7.60001 13.4L8.10001 12.2V12.1H8.2H11.1H11.2V12.2L11.7 13.4C11.9 13.7 12.1 13.9 12.4 13.9C12.5 13.9 12.6 13.9 12.7 13.8C12.9 13.7 13.1 13.5 13.1 13.4C13.2 13.2 13.2 13 13.1 12.8L10.4 5.4ZM10.3 10.5H8.80001H8.60001L8.7 10.3L9.4 8.4L9.5 8.1L9.60001 8.4L10.3 10.3L10.4 10.5H10.3Z" fill="#333333" stroke="#333333" stroke-width="0.25" stroke-miterlimit="10"/>
<path d="M25.1 13.1C25.1 12.7 24.7 12.6 24.4 12.6H21.8H21.7V12.5V11.6C21.7 11.2 21.3 10.9 21 10.9C20.7 10.9 20.3 11.3 20.3 11.6V12.5V12.6H20.2H17.6C17.2 12.6 16.9 13 16.9 13.3C16.9 13.7 17.3 14 17.6 14H22.5H22.7V14.1C22.5 15.1 21.9 16.2 21.2 17L21.1 17.1L21 17C20.9 16.9 20.8 16.7 20.7 16.6C20.6 16.4 20.5 16.3 20.4 16.2C20.3 16 20.1 15.9 19.9 15.9C19.8 15.9 19.6 15.9 19.6 16C19.4 16.1 19.3 16.2 19.3 16.4C19.3 16.6 19.3 16.7 19.4 16.9C19.6 17.3 19.8 17.5 20.2 17.9L20.3 18L20.2 18.1C19.7 18.6 19 19 18.4 19.2C18 19.4 18.1 19.8 18.3 20.1C18.5 20.5 18.8 20.5 19.2 20.5C20.1 20.1 20.7 19.6 21.3 19L21.4 18.9L21.5 19C22.1 19.6 22.7 20 23.6 20.5C23.7 20.5 23.8 20.6 23.9 20.6C24.2 20.6 24.4 20.4 24.5 20.2C24.7 19.8 24.5 19.5 24.1 19.3C23.6 19.1 23.3 18.9 22.9 18.6C22.7 18.5 22.6 18.4 22.4 18.2L22.3 18.1L22.4 18C23.3 17.1 24 15.8 24.5 14V13.9H24.6C24.8 13.8 25.1 13.4 25.1 13.1Z" fill="#333333" stroke="#333333" stroke-width="0.25" stroke-miterlimit="10"/>
</svg>
