<?xml version="1.0" encoding="utf-8"?>
<!-- Generator: Adobe Illustrator 22.0.1, SVG Export Plug-In . SVG Version: 6.00 Build 0)  -->
<svg version="1.1" id="Ebene_1" xmlns="http://www.w3.org/2000/svg" xmlns:xlink="http://www.w3.org/1999/xlink" x="0px" y="0px"
	 viewBox="0 0 297 60" style="enable-background:new 0 0 297 60;" xml:space="preserve">
<style type="text/css">
	.st0{fill:#333333;}
</style>
<g>
	<g>
		<g>
			<path class="st0" d="M167.4,26.8l2.8,7.4l2.7-7.4h3.3L170,41.5h-3.2l1.8-4.2l-4.4-10.5C164.2,26.8,167.4,26.8,167.4,26.8z"/>
			<path class="st0" d="M189.7,28c0.2,0.2,0.6,0.7,0.9,1.3c0.2,0.4,0.4,0.9,0.4,1c0.1,0.3,0.2,0.9,0.2,1.7c0,0.4,0,0.8-0.1,1.2
				c-0.1,1-0.5,2.2-1.5,3.2c-0.8,0.8-1.9,1.4-3.9,1.4c-1.8,0-2.9-0.5-3.7-1.2c-0.4-0.3-0.6-0.6-0.7-0.7c-0.6-0.8-1-1.9-1-3.7
				c0-0.4,0-1.3,0.5-2.5c0.2-0.5,0.4-0.8,0.8-1.3c0.8-0.9,2.1-1.7,4-1.7c0.4,0,1.9-0.1,3.3,0.7c0.2,0.1,0.3,0.2,0.5,0.3L189.7,28z
				 M184.4,29.2c-0.3,0.2-0.4,0.5-0.5,0.6c-0.4,0.6-0.6,1.4-0.6,2.8c0,0.1-0.1,1.6,0.7,2.7c0.1,0.1,0.3,0.3,0.4,0.4
				c0.2,0.1,0.6,0.4,1.2,0.4c0.1,0,0.3,0,0.6-0.1c0.7-0.2,1.1-0.8,1.3-1.1c0.5-0.9,0.5-2.5,0.5-2.6c0-0.2,0-1.2-0.4-2.1
				c-0.2-0.4-0.4-0.6-0.5-0.7c-0.2-0.2-0.4-0.3-0.5-0.4c-0.2-0.1-0.6-0.3-1.2-0.2C185.1,28.6,184.7,29,184.4,29.2z"/>
			<path class="st0" d="M198.9,24.6c-0.7,0-1.2,0-1.5,0.1c-0.6,0.2-0.6,0.8-0.6,1.2v0.9h1.9V29h-1.9v8.6h-3.1V29h-1.9v-2.1h1.9v-1.2
				c0-0.1,0-0.9,0.2-1.5c0.5-1.2,1.5-1.6,3.4-1.6c0.5,0,0.9,0,1.4,0.1L198.9,24.6z"/>
		</g>
		<g>
			<path class="st0" d="M77.4,22.4v9.3c0,1.7,0.1,3.8,3.3,3.8c0.5,0,2.1,0,2.9-1.3c0.3-0.5,0.5-1.1,0.5-2.6v-9.1h3.2V32
				c0,4.5-3.6,6-6.7,6c-1.5,0-4.3-0.3-5.7-2.6c-0.7-1.2-0.8-2.3-0.8-3.7v-9.3H77.4L77.4,22.4z M89.8,28.8c0,0,0-1.2-0.1-1.9h3
				l0.1,1.6c0.3-0.5,1.1-1.9,3.5-1.9c2.1,0,3,1.3,3.2,2s0.3,1.2,0.3,3.2v5.8h-3.2V31c0-0.4,0-0.8-0.2-1.2c-0.2-0.5-0.7-0.9-1.5-0.9
				c-0.7,0-1.3,0.3-1.6,0.8C93.2,30,93,30.5,93,31.3v6.2h-3.1L89.8,28.8L89.8,28.8z M102.7,26.9h3.1v10.7h-3.1V26.9z M110.6,26.9
				l2.4,7.2l2.4-7.2h3l-3.8,10.6h-3.5l-3.9-10.6C107.3,26.9,110.6,26.9,110.6,26.9z M122.3,33c0,0.7,0,2.8,2.2,2.8
				c0.8,0,1.6-0.3,1.9-1.5h2.8c0,0.5-0.1,1.4-1,2.3c-0.8,0.8-2.2,1.2-3.7,1.2c-0.9,0-2.6-0.2-3.8-1.3c-1-1-1.4-2.4-1.4-4.2
				c0-1.7,0.4-3.8,2.2-5c0.8-0.5,1.8-0.9,3-0.9c1.5,0,3.3,0.6,4.3,2.6c0.7,1.5,0.7,3,0.6,3.9L122.3,33L122.3,33z M126.3,31.1
				c0-0.5,0-2.4-1.9-2.4c-1.4,0-1.9,1.1-2,2.4H126.3L126.3,31.1z M131.5,29.5c0-0.5-0.1-2-0.1-2.7h2.9l0.1,2
				c0.4-0.9,1.1-2.2,3.6-2.1v2.8c-3.2-0.3-3.4,1.3-3.4,2.7v5.2h-3.1V29.5L131.5,29.5z M141.9,34.5c0,0.7,0.5,1.5,1.8,1.5
				c1.1,0,1.6-0.6,1.6-1.3c0-0.5-0.3-0.9-1.5-1.2l-1.9-0.5c-0.9-0.3-2.7-0.8-2.7-2.9s1.9-3.3,4.7-3.3c2.2,0,4,1,4,3.1h-2.8
				c-0.1-1.2-1-1.3-1.5-1.3c-0.8,0-1.5,0.4-1.5,1.1s0.5,0.9,1.5,1.1l1.9,0.5c1.9,0.5,2.8,1.5,2.8,3c0,1.8-1.6,3.7-4.9,3.7
				c-1.4,0-2.7-0.3-3.6-1.3c-0.7-0.7-0.8-1.6-0.8-2.1L141.9,34.5L141.9,34.5z M150.2,26.9h3.1v10.7h-3.1V26.9L150.2,26.9z
				 M162.4,37.4c-1,0.3-1.9,0.3-2.4,0.3c-3.1,0-3.1-2-3.1-2.9V29h-2v-2h2v-3.2l3.1-0.6V27h2.5v2H160v4.8c0,1,0,1.6,1.4,1.6
				c0.5,0,0.7,0,1.1-0.1v2.1H162.4z"/>
			<path class="st0" d="M153.6,23.8c0,0.9-0.7,1.7-1.7,1.7c-0.9,0-1.7-0.7-1.7-1.7c0-0.9,0.7-1.7,1.7-1.7
				C152.8,22.2,153.6,22.9,153.6,23.8z M105.9,23.8c0,0.9-0.8,1.7-1.7,1.7s-1.7-0.7-1.7-1.7c0-0.9,0.8-1.7,1.7-1.7
				S105.9,22.9,105.9,23.8L105.9,23.8z"/>
		</g>
		<path class="st0" d="M209,32.7c0,0.7,0,2.9,2.8,2.9c1.8,0,2.9-0.8,2.9-2.1s-1-1.6-2.9-2c-3.6-0.9-5.6-2-5.6-4.6
			c0-2.5,1.8-4.7,6-4.7c1.6,0,3.5,0.4,4.6,1.8c0.9,1.1,0.9,2.3,0.9,2.8h-3.1c0-0.5-0.2-2.3-2.5-2.3c-1.5,0-2.5,0.8-2.5,2.1
			c0,1.4,1.1,1.7,3.3,2.2c2.6,0.6,5.2,1.3,5.2,4.3c0,2.7-2.3,5-6.5,5c-5.8,0-5.9-3.8-5.9-5.2h3.3V32.7z M226.6,37.4
			c-1,0.3-1.9,0.3-2.4,0.3c-3.1,0-3.1-2-3.1-2.9V29h-2v-2h2v-2.1l3.1-1.1V27h2.5v2.1h-2.5v4.8c0,1,0,1.6,1.4,1.6
			c0.5,0,0.7,0,1.1-0.1L226.6,37.4L226.6,37.4z M231.3,26.9v6.3c0,0.9,0,2.3,1.7,2.3c2,0,2-1.5,2-3.3v-5.4h3.2v7
			c0,2.3,0.1,2.6,0.1,2.8c0,0.3,0,0.5,0.1,0.8h-3l-0.1-1.4c-0.3,0.5-1.1,1.7-3.1,1.7c-1.4,0-2.6-0.7-3.2-1.4
			c-0.7-0.9-0.7-2.3-0.7-2.9v-6.6L231.3,26.9L231.3,26.9z M247.4,37.4c-1,0.3-1.9,0.3-2.4,0.3c-3.1,0-3.1-2-3.1-2.9V29h-2v-2h2v-2.1
			l3.1-1.1V27h2.5v2.1H245v4.8c0,1,0,1.6,1.4,1.6c0.5,0,0.7,0,1.1-0.1L247.4,37.4L247.4,37.4z M255.8,37.4c-1,0.3-1.9,0.3-2.4,0.3
			c-3.1,0-3.1-2-3.1-2.9V29h-2v-2h2v-2.1l3.1-1.1V27h2.5v2.1h-2.5v4.8c0,1,0,1.6,1.4,1.6c0.5,0,0.7,0,1.1-0.1L255.8,37.4L255.8,37.4
			z M267.8,27c-0.1,0.8-0.1,1.6-0.1,2.6v7.9c0,3.9-3.3,4.3-5.3,4.3c-1.5,0-4.5-0.2-4.7-3.4h3c0,0.3,0.2,1.5,1.9,1.5
			c0.9,0,1.7-0.4,1.9-1.4c0.1-0.5,0.1-0.9,0.1-2.5c-1,1.3-2.1,1.5-2.9,1.5c-3.1,0-4.5-2.7-4.5-5.2c0-2.7,1.5-5.3,4.6-5.3
			c1.9,0,2.7,1,3,1.5l0.1-1.4L267.8,27L267.8,27z M262.5,35.2c2.2,0,2.2-2.6,2.2-3c0-1.2-0.2-3.2-2.1-3.2c-1.2,0-2.2,0.9-2.2,3.2
			C260.4,32.7,260.4,35.2,262.5,35.2L262.5,35.2z M276.6,37.6c-0.1-0.7-0.1-1.1-0.1-1.5c-1.2,1.7-2.6,1.7-3.2,1.7
			c-1.5,0-2.2-0.4-2.7-0.8c-0.6-0.6-0.9-1.5-0.9-2.3s0.3-2.4,2.3-3.3c1.3-0.6,3.2-0.6,4.2-0.6c0-0.7,0-1-0.1-1.4
			c-0.3-0.8-1.1-0.9-1.4-0.9c-0.4,0-0.9,0.2-1.2,0.6c-0.2,0.4-0.2,0.7-0.2,0.9h-3.1c0-0.6,0.1-1.7,1.2-2.5c1-0.7,2.2-0.9,3.2-0.9
			c0.9,0,2.7,0.1,3.8,1.4c0.7,0.9,0.7,2.1,0.7,2.6v4.3c0,0.9,0.1,1.8,0.3,2.7L276.6,37.6L276.6,37.6z M272.7,34.3
			c0,0.7,0.5,1.5,1.5,1.5c0.6,0,1-0.3,1.3-0.6c0.5-0.7,0.6-1.5,0.6-2.6C274.2,32.4,272.7,33,272.7,34.3L272.7,34.3z M281.9,29.5
			c0-0.5-0.1-2-0.1-2.7h2.9l0.1,2c0.4-0.9,1.1-2.1,3.6-1.9V29c-3.2-0.3-3.4,1.9-3.4,3.3v5.2h-3.1V29.5L281.9,29.5z M296.8,37.4
			c-1,0.3-1.9,0.3-2.4,0.3c-3.1,0-3.1-2-3.1-2.9V29h-2v-2h2v-2.1l3.1-1.1V27h2.5v2.1h-2.5v4.8c0,1,0,1.6,1.4,1.6
			c0.5,0,0.7,0,1.1-0.1L296.8,37.4L296.8,37.4z"/>
	</g>
	<g>
		<circle class="st0" cx="29.2" cy="30" r="1.6"/>
		<path class="st0" d="M33.1,27.6c0-0.9-0.7-1.6-1.6-1.6S30,26.7,30,27.6s0.7,1.6,1.6,1.6C32.4,29.1,33.1,28.4,33.1,27.6z"/>
		<circle class="st0" cx="31.6" cy="32.5" r="1.6"/>
		<circle class="st0" cx="34.3" cy="30" r="1.6"/>
		<path class="st0" d="M37.3,25.9c-0.9,0-1.6,0.7-1.6,1.6s0.7,1.6,1.6,1.6c0.9,0,1.6-0.7,1.6-1.6C38.8,26.6,38.1,25.9,37.3,25.9
			L37.3,25.9z"/>
		<circle class="st0" cx="37.2" cy="32.5" r="1.6"/>
		<path class="st0" d="M34.2,36.6c0.9,0,1.6-0.7,1.6-1.6c0-0.9-0.7-1.6-1.6-1.6s-1.6,0.7-1.6,1.6C32.6,35.9,33.3,36.6,34.2,36.6
			L34.2,36.6z M33.3,38.1c0-0.9-0.7-1.6-1.6-1.6s-1.6,0.7-1.6,1.6s0.7,1.6,1.6,1.6C32.6,39.6,33.3,38.9,33.3,38.1L33.3,38.1z
			 M29.3,43c0.9,0,1.6-0.7,1.6-1.6c0-0.9-0.7-1.6-1.6-1.6s-1.6,0.7-1.6,1.6C27.7,42.3,28.4,43,29.3,43L29.3,43z"/>
		<circle class="st0" cx="40.6" cy="30" r="1.6"/>
		<circle class="st0" cx="40.4" cy="35.2" r="1.6"/>
		<path class="st0" d="M44.1,31.3c-0.9,0-1.6,0.7-1.6,1.6s0.7,1.6,1.6,1.6c0.9,0,1.6-0.7,1.6-1.6S45,31.3,44.1,31.3z M45.3,38.2
			c0-0.9-0.7-1.6-1.6-1.6c-0.9,0-1.6,0.7-1.6,1.6c0,0.9,0.7,1.6,1.6,1.6S45.3,39.1,45.3,38.2z M41.5,40.6c0-0.9-0.7-1.6-1.6-1.6
			c-0.9,0-1.6,0.7-1.6,1.6c0,0.9,0.7,1.6,1.6,1.6C40.7,42.2,41.5,41.5,41.5,40.6L41.5,40.6z M34.4,42.8c0.9,0,1.6-0.7,1.6-1.6
			c0-0.9-0.7-1.6-1.6-1.6c-0.9,0-1.6,0.7-1.6,1.6C32.8,42.1,33.6,42.8,34.4,42.8L34.4,42.8z M31.9,46.5c0.9,0,1.6-0.7,1.6-1.6
			c0-0.9-0.7-1.6-1.6-1.6s-1.6,0.7-1.6,1.6C30.4,45.8,31.1,46.5,31.9,46.5L31.9,46.5z M29.2,50.4c0.9,0,1.6-0.7,1.6-1.6
			c0-0.9-0.7-1.6-1.6-1.6s-1.6,0.7-1.6,1.6S28.4,50.4,29.2,50.4L29.2,50.4z M38.5,37.7c0-0.9-0.7-1.6-1.6-1.6
			c-0.9,0-1.6,0.7-1.6,1.6c0,0.9,0.7,1.6,1.6,1.6S38.5,38.6,38.5,37.7L38.5,37.7z"/>
		<circle class="st0" cx="47.8" cy="35.7" r="1.6"/>
		<circle class="st0" cx="47.2" cy="41.4" r="1.6"/>
		<path class="st0" d="M51.1,43.3c-0.9,0-1.6,0.7-1.6,1.6c0,0.9,0.7,1.6,1.6,1.6c0.9,0,1.6-0.7,1.6-1.6C52.7,44,52,43.3,51.1,43.3
			L51.1,43.3z M46.3,45.5c-0.9,0-1.6,0.7-1.6,1.6c0,0.9,0.7,1.6,1.6,1.6c0.9,0,1.6-0.7,1.6-1.6C47.9,46.2,47.2,45.5,46.3,45.5z
			 M44.6,43.8c0-0.9-0.7-1.6-1.6-1.6s-1.6,0.7-1.6,1.6c0,0.9,0.7,1.6,1.6,1.6S44.6,44.7,44.6,43.8L44.6,43.8z M40.7,49.6
			c0.9,0,1.6-0.7,1.6-1.6c0-0.9-0.7-1.6-1.6-1.6c-0.9,0-1.6,0.7-1.6,1.6C39.1,48.9,39.8,49.6,40.7,49.6z M34.9,50.2
			c0.9,0,1.6-0.7,1.6-1.6c0-0.9-0.7-1.6-1.6-1.6c-0.9,0-1.6,0.7-1.6,1.6C33.4,49.5,34.1,50.2,34.9,50.2L34.9,50.2z M39,44.5
			c0-0.9-0.7-1.6-1.6-1.6c-0.9,0-1.6,0.7-1.6,1.6c0,0.9,0.7,1.6,1.6,1.6S39,45.4,39,44.5L39,44.5z"/>
		<circle class="st0" cx="50" cy="50.8" r="1.6"/>
		<circle class="st0" cx="44" cy="51.9" r="1.6"/>
		<path class="st0" d="M41.4,54.9c-0.9,0-1.6,0.7-1.6,1.6c0,0.9,0.7,1.6,1.6,1.6c0.9,0,1.6-0.7,1.6-1.6C43,55.6,42.3,54.9,41.4,54.9
			L41.4,54.9z"/>
		<circle class="st0" cx="38.1" cy="52.6" r="1.6"/>
		<path class="st0" d="M35.3,55.7c-0.9,0-1.6,0.7-1.6,1.6c0,0.9,0.7,1.6,1.6,1.6c0.9,0,1.6-0.7,1.6-1.6
			C36.9,56.4,36.2,55.7,35.3,55.7z"/>
		<circle class="st0" cx="32.1" cy="53" r="1.6"/>
		<circle class="st0" cx="29.3" cy="57.6" r="1.6"/>
		<circle class="st0" cx="26.2" cy="52.9" r="1.6"/>
		<path class="st0" d="M23,55.7c-0.9,0-1.6,0.7-1.6,1.6c0,0.9,0.7,1.6,1.6,1.6s1.6-0.7,1.6-1.6C24.6,56.5,23.9,55.7,23,55.7L23,55.7
			z"/>
		<circle class="st0" cx="17.1" cy="56.5" r="1.6"/>
		<path class="st0" d="M51.8,37.3c-0.9,0-1.6,0.7-1.6,1.6c0,0.9,0.7,1.6,1.6,1.6s1.6-0.7,1.6-1.6C53.4,38,52.7,37.3,51.8,37.3
			L51.8,37.3z M55.7,40.5c-0.9,0-1.6,0.7-1.6,1.6c0,0.9,0.7,1.6,1.6,1.6c0.9,0,1.6-0.7,1.6-1.6S56.6,40.5,55.7,40.5L55.7,40.5z
			 M56.5,34.5c-0.9,0-1.6,0.7-1.6,1.6c0,0.9,0.7,1.6,1.6,1.6c0.9,0,1.6-0.7,1.6-1.6S57.4,34.5,56.5,34.5L56.5,34.5z M52.1,31.4
			c-0.9,0-1.6,0.7-1.6,1.6s0.7,1.6,1.6,1.6c0.9,0,1.6-0.7,1.6-1.6C53.7,32.1,53,31.4,52.1,31.4L52.1,31.4z"/>
		<circle class="st0" cx="56.8" cy="30" r="1.6"/>
		<circle class="st0" cx="52.1" cy="27.1" r="1.6"/>
		<circle class="st0" cx="56.5" cy="23.9" r="1.6"/>
		<path class="st0" d="M50.2,21.1c0,0.9,0.7,1.6,1.6,1.6c0.9,0,1.6-0.7,1.6-1.6s-0.7-1.6-1.6-1.6C50.9,19.6,50.2,20.3,50.2,21.1
			L50.2,21.1z M55.7,19.4c0.9,0,1.6-0.7,1.6-1.6s-0.7-1.6-1.6-1.6c-0.9,0-1.6,0.7-1.6,1.6C54.2,18.7,54.9,19.4,55.7,19.4L55.7,19.4z
			"/>
		<circle class="st0" cx="51.1" cy="15.2" r="1.6"/>
		<path class="st0" d="M50,10.9c0.9,0,1.6-0.7,1.6-1.6c0-0.9-0.7-1.6-1.6-1.6c-0.9,0-1.6,0.7-1.6,1.6C48.4,10.2,49.1,10.9,50,10.9
			L50,10.9z"/>
		<circle class="st0" cx="46.4" cy="12.9" r="1.6"/>
		<path class="st0" d="M43,14.6c-0.9,0-1.6,0.7-1.6,1.6c0,0.9,0.7,1.6,1.6,1.6c0.9,0,1.6-0.7,1.6-1.6C44.6,15.3,43.9,14.6,43,14.6
			L43,14.6z M38.3,19.4c0,0.9,0.7,1.6,1.6,1.6c0.9,0,1.6-0.7,1.6-1.6s-0.7-1.6-1.6-1.6S38.3,18.5,38.3,19.4L38.3,19.4z"/>
		<circle class="st0" cx="37.4" cy="15.5" r="1.6"/>
		<circle class="st0" cx="34.9" cy="11.4" r="1.6"/>
		<circle class="st0" cx="32" cy="15.1" r="1.6"/>
		<circle class="st0" cx="26.3" cy="15.1" r="1.6"/>
		<circle class="st0" cx="24" cy="18.8" r="1.6"/>
		<path class="st0" d="M25,22c0,0.9,0.7,1.6,1.6,1.6s1.6-0.7,1.6-1.6s-0.7-1.6-1.6-1.6C25.8,20.4,25,21.1,25,22L25,22z"/>
		<circle class="st0" cx="21.5" cy="22.3" r="1.6"/>
		<circle class="st0" cx="18" cy="24.8" r="1.6"/>
		<path class="st0" d="M14.3,28.8c0.9,0,1.6-0.7,1.6-1.6s-0.7-1.6-1.6-1.6c-0.9,0-1.6,0.7-1.6,1.6C12.7,28.1,13.4,28.8,14.3,28.8
			L14.3,28.8z"/>
		<circle class="st0" cx="14.7" cy="21.8" r="1.6"/>
		<circle class="st0" cx="10.6" cy="24.3" r="1.6"/>
		<path class="st0" d="M6.2,28.7c0.9,0,1.6-0.7,1.6-1.6s-0.7-1.6-1.6-1.6s-1.6,0.7-1.6,1.6S5.4,28.7,6.2,28.7L6.2,28.7z M1.8,25.4
			c0.9,0,1.6-0.7,1.6-1.6s-0.7-1.6-1.6-1.6s-1.6,0.7-1.6,1.6C0.3,24.7,1,25.4,1.8,25.4L1.8,25.4z"/>
		<circle class="st0" cx="6.6" cy="21.2" r="1.6"/>
		<path class="st0" d="M2.7,16.2c-0.9,0-1.6,0.7-1.6,1.6s0.7,1.6,1.6,1.6s1.6-0.7,1.6-1.6C4.2,16.9,3.5,16.2,2.7,16.2z M7.3,16.8
			c0.9,0,1.6-0.7,1.6-1.6s-0.7-1.6-1.6-1.6s-1.6,0.7-1.6,1.6C5.7,16.1,6.4,16.8,7.3,16.8z"/>
		<circle class="st0" cx="11.1" cy="18.5" r="1.6"/>
		<circle class="st0" cx="15.4" cy="16.2" r="1.6"/>
		<circle class="st0" cx="18.5" cy="19.4" r="1.6"/>
		<path class="st0" d="M10.4,31.5c0.9,0,1.6-0.7,1.6-1.6s-0.7-1.6-1.6-1.6c-0.9,0-1.6,0.7-1.6,1.6C8.8,30.8,9.5,31.5,10.4,31.5
			L10.4,31.5z"/>
		<circle class="st0" cx="29.3" cy="18.6" r="1.6"/>
		<path class="st0" d="M40.7,10.4c-0.9,0-1.6,0.7-1.6,1.6c0,0.9,0.7,1.6,1.6,1.6c0.9,0,1.6-0.7,1.6-1.6
			C42.2,11.1,41.5,10.4,40.7,10.4L40.7,10.4z"/>
		<circle class="st0" cx="44" cy="8.1" r="1.6"/>
		<circle class="st0" cx="38.1" cy="7.4" r="1.6"/>
		<path class="st0" d="M41.4,5.1c0.9,0,1.6-0.7,1.6-1.6s-0.7-1.6-1.6-1.6c-0.9,0-1.6,0.7-1.6,1.6S40.6,5.1,41.4,5.1L41.4,5.1z"/>
		<circle class="st0" cx="35.3" cy="2.7" r="1.6"/>
		<circle class="st0" cx="29.2" cy="2.4" r="1.6"/>
		<circle class="st0" cx="23" cy="2.7" r="1.6"/>
		<path class="st0" d="M17.1,5.1c0.9,0,1.6-0.7,1.6-1.6S18,1.9,17.1,1.9s-1.6,0.7-1.6,1.6S16.2,5.1,17.1,5.1L17.1,5.1z"/>
		<circle class="st0" cx="26.2" cy="7.1" r="1.6"/>
		<path class="st0" d="M20.3,9c0.9,0,1.6-0.7,1.6-1.6s-0.7-1.6-1.6-1.6s-1.6,0.7-1.6,1.6C18.7,8.3,19.5,9,20.3,9z M17.7,10.4
			c-0.9,0-1.6,0.7-1.6,1.6c0,0.9,0.7,1.6,1.6,1.6s1.6-0.7,1.6-1.6C19.3,11.1,18.6,10.4,17.7,10.4L17.7,10.4z M12,14.5
			c0.9,0,1.6-0.7,1.6-1.6c0-0.9-0.7-1.6-1.6-1.6c-0.9,0-1.6,0.7-1.6,1.6S11.1,14.5,12,14.5L12,14.5z M8.7,10.8
			c0.9,0,1.6-0.7,1.6-1.6c0-0.9-0.7-1.6-1.6-1.6S7.1,8.3,7.1,9.2C7.1,10.1,7.8,10.8,8.7,10.8L8.7,10.8z M14.4,9.7
			C15.3,9.7,16,9,16,8.1s-0.7-1.6-1.6-1.6c-0.9,0-1.6,0.7-1.6,1.6C12.8,9,13.5,9.7,14.4,9.7L14.4,9.7z"/>
		<circle class="st0" cx="21" cy="15.5" r="1.6"/>
		<circle class="st0" cx="23.4" cy="11.4" r="1.6"/>
		<circle class="st0" cx="32.1" cy="7.1" r="1.6"/>
		<circle class="st0" cx="29.2" cy="11.2" r="1.6"/>
		<circle class="st0" cx="36.9" cy="22.3" r="1.6"/>
		<path class="st0" d="M34.2,23.4c-0.9,0-1.6,0.7-1.6,1.6s0.7,1.6,1.6,1.6s1.6-0.7,1.6-1.6S35.1,23.4,34.2,23.4z M30.2,21.9
			c0,0.9,0.7,1.6,1.6,1.6s1.6-0.7,1.6-1.6s-0.7-1.6-1.6-1.6C30.9,20.3,30.2,21.1,30.2,21.9L30.2,21.9z M29.2,23.3
			c-0.9,0-1.6,0.7-1.6,1.6s0.7,1.6,1.6,1.6s1.6-0.7,1.6-1.6C30.8,24,30.1,23.3,29.2,23.3z M25.2,27.6c0,0.9,0.7,1.6,1.6,1.6
			s1.6-0.7,1.6-1.6S27.7,26,26.8,26C25.9,26,25.2,26.7,25.2,27.6L25.2,27.6z M24.2,23.5c-0.9,0-1.6,0.7-1.6,1.6s0.7,1.6,1.6,1.6
			s1.6-0.7,1.6-1.6C25.8,24.2,25.1,23.5,24.2,23.5L24.2,23.5z M24.1,31.6c0.9,0,1.6-0.7,1.6-1.6s-0.7-1.6-1.6-1.6s-1.6,0.7-1.6,1.6
			S23.2,31.6,24.1,31.6L24.1,31.6z"/>
		<circle class="st0" cx="21.1" cy="27.5" r="1.6"/>
		<circle class="st0" cx="21.1" cy="32.6" r="1.6"/>
		<path class="st0" d="M17.8,31.5c0.9,0,1.6-0.7,1.6-1.6s-0.7-1.6-1.6-1.6s-1.6,0.7-1.6,1.6C16.2,30.8,16.9,31.5,17.8,31.5z"/>
		<circle class="st0" cx="18.1" cy="35.3" r="1.6"/>
		<path class="st0" d="M14.3,34.4c0.9,0,1.6-0.7,1.6-1.6c0-0.9-0.7-1.6-1.6-1.6c-0.9,0-1.6,0.7-1.6,1.6
			C12.7,33.7,13.4,34.4,14.3,34.4L14.3,34.4z M14.7,39.9c0.9,0,1.6-0.7,1.6-1.6c0-0.9-0.7-1.6-1.6-1.6c-0.9,0-1.6,0.7-1.6,1.6
			C13.1,39.1,13.8,39.9,14.7,39.9z M11.1,43.1c0.9,0,1.6-0.7,1.6-1.6c0-0.9-0.7-1.6-1.6-1.6c-0.9,0-1.6,0.7-1.6,1.6
			C9.6,42.4,10.3,43.1,11.1,43.1L11.1,43.1z M8.2,38.9c0-0.9-0.7-1.6-1.6-1.6S5,38,5,38.9s0.7,1.6,1.6,1.6S8.2,39.7,8.2,38.9z"/>
		<circle class="st0" cx="1.9" cy="36.1" r="1.6"/>
		<path class="st0" d="M6.2,34.6c0.9,0,1.6-0.7,1.6-1.6c0-0.9-0.7-1.6-1.6-1.6S4.6,32.1,4.6,33S5.4,34.6,6.2,34.6L6.2,34.6z"/>
		<circle class="st0" cx="1.6" cy="30" r="1.6"/>
		<path class="st0" d="M10.6,37.3c0.9,0,1.6-0.7,1.6-1.6c0-0.9-0.7-1.6-1.6-1.6c-0.9,0-1.6,0.7-1.6,1.6S9.7,37.3,10.6,37.3
			L10.6,37.3z M2.6,40.5c-0.9,0-1.6,0.7-1.6,1.6c0,0.9,0.7,1.6,1.6,1.6s1.6-0.7,1.6-1.6S3.5,40.5,2.6,40.5L2.6,40.5z"/>
		<circle class="st0" cx="7.3" cy="44.9" r="1.6"/>
		<path class="st0" d="M28.3,32.5c0-0.9-0.7-1.6-1.6-1.6s-1.6,0.7-1.6,1.6c0,0.9,0.7,1.6,1.6,1.6C27.6,34.1,28.3,33.4,28.3,32.5
			L28.3,32.5z M29.2,36.7c0.9,0,1.6-0.7,1.6-1.6c0-0.9-0.7-1.6-1.6-1.6s-1.6,0.7-1.6,1.6C27.7,35.9,28.4,36.7,29.2,36.7L29.2,36.7z
			 M28.2,38.1c0-0.9-0.7-1.6-1.6-1.6S25,37.2,25,38.1s0.7,1.6,1.6,1.6C27.5,39.6,28.2,38.9,28.2,38.1L28.2,38.1z M24,42.8
			c0.9,0,1.6-0.7,1.6-1.6c0-0.9-0.7-1.6-1.6-1.6s-1.6,0.7-1.6,1.6S23.1,42.8,24,42.8z"/>
		<circle class="st0" cx="26.4" cy="44.9" r="1.6"/>
		<circle class="st0" cx="23.4" cy="48.6" r="1.6"/>
		<circle class="st0" cx="17.7" cy="48" r="1.6"/>
		<path class="st0" d="M15.4,45.4c0.9,0,1.6-0.7,1.6-1.6c0-0.9-0.7-1.6-1.6-1.6s-1.6,0.7-1.6,1.6C13.9,44.7,14.6,45.4,15.4,45.4
			L15.4,45.4z M21,46.1c0.9,0,1.6-0.7,1.6-1.6c0-0.9-0.7-1.6-1.6-1.6s-1.6,0.7-1.6,1.6C19.4,45.4,20.1,46.1,21,46.1L21,46.1z
			 M20.1,40.6c0-0.9-0.7-1.6-1.6-1.6s-1.6,0.7-1.6,1.6c0,0.9,0.7,1.6,1.6,1.6C19.4,42.1,20.1,41.4,20.1,40.6z"/>
		<circle class="st0" cx="21.5" cy="37.7" r="1.6"/>
		<path class="st0" d="M24.2,36.6c0.9,0,1.6-0.7,1.6-1.6c0-0.9-0.7-1.6-1.6-1.6s-1.6,0.7-1.6,1.6C22.6,35.8,23.4,36.6,24.2,36.6
			L24.2,36.6z M13.6,47.1c0-0.9-0.7-1.6-1.6-1.6c-0.9,0-1.6,0.7-1.6,1.6c0,0.9,0.7,1.6,1.6,1.6C12.9,48.6,13.6,47.9,13.6,47.1
			L13.6,47.1z"/>
		<circle class="st0" cx="14.4" cy="51.9" r="1.6"/>
		<path class="st0" d="M8.6,49.2c-0.9,0-1.6,0.7-1.6,1.6c0,0.9,0.7,1.6,1.6,1.6s1.6-0.7,1.6-1.6C10.2,49.9,9.5,49.2,8.6,49.2
			L8.6,49.2z M20.3,51c-0.9,0-1.6,0.7-1.6,1.6c0,0.9,0.7,1.6,1.6,1.6s1.6-0.7,1.6-1.6S21.2,51,20.3,51L20.3,51z M34.4,17.3
			c-0.9,0-1.6,0.7-1.6,1.6s0.7,1.6,1.6,1.6c0.9,0,1.6-0.7,1.6-1.6S35.3,17.3,34.4,17.3z M45.6,18.6c0,0.9,0.7,1.6,1.6,1.6
			c0.9,0,1.6-0.7,1.6-1.6S48.1,17,47.2,17S45.6,17.7,45.6,18.6z"/>
		<circle class="st0" cx="43.7" cy="21.8" r="1.6"/>
		<path class="st0" d="M47.8,25.8c0.9,0,1.6-0.7,1.6-1.6s-0.7-1.6-1.6-1.6c-0.9,0-1.6,0.7-1.6,1.6C46.2,25.1,46.9,25.8,47.8,25.8
			L47.8,25.8z M48,28.4c-0.9,0-1.6,0.7-1.6,1.6s0.7,1.6,1.6,1.6c0.9,0,1.6-0.7,1.6-1.6S48.9,28.4,48,28.4L48,28.4z"/>
		<circle class="st0" cx="44.1" cy="27.2" r="1.6"/>
		<path class="st0" d="M40.4,26.4c0.9,0,1.6-0.7,1.6-1.6s-0.7-1.6-1.6-1.6c-0.9,0-1.6,0.7-1.6,1.6C38.8,25.6,39.5,26.4,40.4,26.4
			L40.4,26.4z"/>
	</g>
</g>
</svg>
