<svg width="21" height="20" viewBox="0 0 21 20" fill="none" xmlns="http://www.w3.org/2000/svg">
<path d="M20.3 15.9C20.3 15.5 20.1 15.2 19.9 14.9C19.8 14.8 19.7 14.8 19.7 14.7L15.8 11.7C15.5 11.5 15.2 11.3 14.8 11.3C14.5 11.3 14.2 11.4 14 11.6L12.9 12.7C12.7 12.9 12.5 13 12.2 13C11.9 13 11.6 12.9 11.4 12.6C9.9 11.5 8.6 10.2 7.5 8.7C7.2 8.6 7.1 8.3 7.1 8C7.1 7.7 7.2 7.5 7.4 7.3L8.5 6.2C8.7 6 8.8 5.8 8.8 5.5C8.8 5.1 8.6 4.8 8.4 4.5L5.4 0.7C5.3 0.6 5.2 0.5 5.1 0.4C4.9 0.2 4.5 0 4.2 0C2.3 0 0 2.1 0 4.8C0 5.5 0.2 6.2 0.5 6.8C3.3 12.2 7.9 16.8 13.4 19.5C14 19.8 14.7 20 15.5 20C18.1 20 20.3 17.7 20.3 15.9ZM15.5 19.1C14.9 19.1 14.4 19 13.8 18.7C13.7 18.7 13.7 18.7 13.6 18.6C8.4 16 4 11.7 1.4 6.6C1.4 6.5 1.4 6.5 1.3 6.4C1.1 5.9 0.9 5.3 0.9 4.8C0.9 2.6 2.9 0.9 4.1 0.9C4.3 0.9 4.4 1 4.5 1C4.5 1 4.5 1 4.6 1.1L4.7 1.2L7.7 5C7.7 5 7.7 5.1 7.8 5.1C7.9 5.2 7.9 5.3 7.9 5.4C7.9 5.5 7.9 5.6 7.8 5.6L6.8 6.6C6.4 7 6.2 7.5 6.2 8C6.2 8.5 6.4 8.9 6.7 9.3V9.4C7.8 10.9 9.2 12.3 10.8 13.5C11.1 13.8 11.6 14 12.1 14C12.6 14 13 13.8 13.4 13.5C13.4 13.5 13.4 13.5 13.5 13.5L14.5 12.5C14.6 12.5 14.6 12.4 14.7 12.4C14.9 12.4 15 12.5 15 12.5L15.1 12.6L19 15.6C19 15.6 19 15.6 19.1 15.7L19.2 15.8C19.2 15.9 19.3 16 19.3 16.1V16.2C19.3 17.2 17.7 19.1 15.5 19.1Z" fill="#323232"/>
</svg>
