<svg width="20" height="15" viewBox="0 0 20 15" fill="none" xmlns="http://www.w3.org/2000/svg">
<path d="M10.5 7.7H14.1C14.4 7.7 14.6 7.5 14.6 7.2C14.6 6.9 14.4 6.7 14.1 6.7H10.5C10.2 6.7 10 6.9 10 7.2C10 7.5 10.2 7.7 10.5 7.7ZM10.5 5.9H16C16.3 5.9 16.5 5.7 16.5 5.4C16.5 5.1 16.3 4.9 16 4.9H10.5C10.2 4.9 10 5.1 10 5.4C10 5.7 10.2 5.9 10.5 5.9ZM10.5 4.1H14.1C14.4 4.1 14.6 3.9 14.6 3.6C14.6 3.3 14.4 3.1 14.1 3.1H10.5C10.2 3.1 10 3.3 10 3.6C10 3.9 10.2 4.1 10.5 4.1ZM10.5 9.5H16C16.3 9.5 16.5 9.3 16.5 9C16.5 8.7 16.3 8.5 16 8.5H10.5C10.2 8.5 10 8.7 10 9C10 9.3 10.2 9.5 10.5 9.5ZM19.1 0H0.900024C0.400024 0 0 0.4 0 0.9V13.6C0 14.1 0.400024 14.5 0.900024 14.5H19.1C19.6 14.5 20 14.1 20 13.6V0.9C20 0.4 19.6 0 19.1 0ZM19.1 13.6H0.900024V0.9H19.1V13.6ZM10.5 11.4H16C16.3 11.4 16.5 11.2 16.5 10.9C16.5 10.6 16.3 10.4 16 10.4H10.5C10.2 10.4 10 10.6 10 10.9C10 11.2 10.2 11.4 10.5 11.4ZM3.59998 8.6H7.20001C7.50001 8.6 7.70001 8.4 7.70001 8.1V3.6C7.70001 3.3 7.50001 3.1 7.20001 3.1H3.59998C3.29998 3.1 3.09998 3.3 3.09998 3.6V8.1C3.19998 8.4 3.39998 8.6 3.59998 8.6ZM4.09998 4.1H6.79999V7.7H4.09998V4.1Z" fill="#333333"/>
</svg>
