<svg width="41" height="12" viewBox="0 0 41 12" fill="none" xmlns="http://www.w3.org/2000/svg">
<path d="M8.7 6.8C8.7 9.6 7.3 11.3 4.3 11.3C1.4 11.3 0 9.6 0 6.8V0.2H1.5V7.1C1.5 9 2.7 10 4.4 10C6.1 10 7.2 9 7.3 7.1V0.2H8.8L8.7 6.8ZM19.3 7.9C19.4 10.3 17.7 11.3 15.4 11.3C13.2 11.3 11 10.4 11 8C11 5.3 13.7 5.3 15.7 4.6C16.6 4.3 17.5 4.2 17.5 3C17.5 1.7 16 1.3 15 1.3C13.9 1.3 12.9 1.7 12.8 2.9H11.2C11.3 0.8 13.1 0 15 0C17 0 19.2 0.9 19.2 3.2C19.2 5.6 16.2 6 14.4 6.4C13.5 6.6 12.6 7 12.6 8.1C12.6 9.6 14.1 10 15.3 10C16.8 10 17.6 9.4 17.7 7.9H19.3ZM30.4 6.8C30.4 9.6 29 11.3 26 11.3C23.1 11.3 21.6 9.6 21.6 6.8V0.2H23.1V7.1C23.1 9 24.3 10 26 10C27.7 10 28.8 9 28.9 7.1V0.2H30.4V6.8ZM34.3 7.9C34.3 9.4 35.2 10 36.7 10C37.9 10 39.4 9.6 39.4 8.1C39.4 7 38.5 6.6 37.6 6.4C35.8 6 32.8 5.6 32.8 3.2C32.9 0.9 35 0 37.1 0C38.9 0 40.8 0.8 40.8 2.9H39.2C39.1 1.7 38.1 1.3 37 1.3C35.9 1.3 34.5 1.7 34.5 3C34.5 4.2 35.4 4.3 36.3 4.6C38.3 5.2 41 5.2 41 8C41 10.5 38.8 11.3 36.6 11.3C34.3 11.3 32.7 10.3 32.7 7.9H34.3Z" fill="#333333"/>
</svg>
